<svg id="wave" style="transform:rotate(0deg); transition: 0.3s" viewBox="0 0 1440 420" version="1.1" xmlns="http://www.w3.org/2000/svg">
    <defs>
        <linearGradient id="sw-gradient-0" x1="0" x2="0" y1="1" y2="0">
            <stop stop-color="rgba(31, 73, 125, 1)" offset="0%"></stop>
            <stop stop-color="rgba(31, 73, 125, 1)" offset="100%"></stop>
        </linearGradient>
    </defs>
    <path style="transform:translate(0, 0px); opacity:1" fill="url(#sw-gradient-0)"
          d="M0,84L60,98C120,112,240,140,360,175C480,210,600,252,720,259C840,266,960,238,1080,224C1200,210,1320,210,1440,217C1560,224,1680,238,1800,203C1920,168,2040,84,2160,63C2280,42,2400,84,2520,98C2640,112,2760,98,2880,133C3000,168,3120,252,3240,238C3360,224,3480,112,3600,105C3720,98,3840,196,3960,238C4080,280,4200,266,4320,231C4440,196,4560,140,4680,161C4800,182,4920,280,5040,315C5160,350,5280,322,5400,266C5520,210,5640,126,5760,105C5880,84,6000,126,6120,154C6240,182,6360,196,6480,189C6600,182,6720,154,6840,182C6960,210,7080,294,7200,329C7320,364,7440,350,7560,287C7680,224,7800,112,7920,84C8040,56,8160,112,8280,154C8400,196,8520,224,8580,238L8640,252L8640,420L8580,420C8520,420,8400,420,8280,420C8160,420,8040,420,7920,420C7800,420,7680,420,7560,420C7440,420,7320,420,7200,420C7080,420,6960,420,6840,420C6720,420,6600,420,6480,420C6360,420,6240,420,6120,420C6000,420,5880,420,5760,420C5640,420,5520,420,5400,420C5280,420,5160,420,5040,420C4920,420,4800,420,4680,420C4560,420,4440,420,4320,420C4200,420,4080,420,3960,420C3840,420,3720,420,3600,420C3480,420,3360,420,3240,420C3120,420,3000,420,2880,420C2760,420,2640,420,2520,420C2400,420,2280,420,2160,420C2040,420,1920,420,1800,420C1680,420,1560,420,1440,420C1320,420,1200,420,1080,420C960,420,840,420,720,420C600,420,480,420,360,420C240,420,120,420,60,420L0,420Z"></path>
</svg>